<svg width="169" height="169" viewBox="0 0 169 169" fill="none" xmlns="http://www.w3.org/2000/svg">
<path d="M80.6271 154.741C71.3556 154.271 62.6708 152.1 54.5729 148.227C46.475 144.354 39.4333 139.278 33.4479 132.999C27.4625 126.721 22.7387 119.428 19.2766 111.123C15.8144 102.818 14.0833 93.9432 14.0833 84.5C14.0833 74.759 15.9318 65.6048 19.6287 57.0375C23.3255 48.4701 28.3427 41.0177 34.6802 34.6802C41.0177 28.3427 48.4701 23.3255 57.0375 19.6286C65.6049 15.9318 74.759 14.0833 84.5 14.0833C101.987 14.0833 117.185 19.5993 130.095 30.6312C143.005 41.6632 150.926 55.5118 153.86 72.1771H143.122C141.127 62.3187 136.96 53.5166 130.623 45.7708C124.285 38.025 116.364 32.2156 106.857 28.3427V31.5114C106.857 35.6191 105.449 39.1986 102.632 42.25C99.8156 45.3014 96.3535 46.8271 92.2458 46.8271H76.9302V62.1427C76.9302 64.0879 76.138 65.7185 74.5537 67.0344C72.9693 68.3503 71.1795 69.0083 69.1844 69.0083H54.5729V84.5H73.9375V106.505H62.1427L26.2302 70.5927C25.6434 72.9399 25.2326 75.2676 24.9979 77.5757C24.7632 79.8838 24.6458 82.1918 24.6458 84.5C24.6458 100.344 29.9858 114.016 40.6656 125.518C51.3455 137.019 64.666 143.239 80.6271 144.178V154.741ZM149.635 150.164L126.046 126.574C123.581 128.334 120.911 129.684 118.036 130.623C115.161 131.562 112.223 132.031 109.222 132.031C100.888 132.031 93.8038 129.12 87.9698 123.296C82.1358 117.473 79.2188 110.402 79.2188 102.083C79.2188 93.7646 82.1304 86.7005 87.9536 80.8911C93.7767 75.0817 100.848 72.1771 109.167 72.1771C117.485 72.1771 124.549 75.0941 130.359 80.9281C136.168 86.7621 139.073 93.8463 139.073 102.181C139.073 105.181 138.574 108.119 137.577 110.994C136.579 113.87 135.259 116.598 133.616 119.18L157.205 142.594L149.635 150.164ZM109.121 121.469C114.536 121.469 119.122 119.599 122.877 115.86C126.633 112.121 128.51 107.544 128.51 102.129C128.51 96.7138 126.641 92.1284 122.902 88.3729C119.163 84.6173 114.586 82.7396 109.171 82.7396C103.756 82.7396 99.1702 84.6091 95.4146 88.3481C91.659 92.0871 89.7813 96.6642 89.7813 102.079C89.7813 107.494 91.6508 112.08 95.3898 115.835C99.1288 119.591 103.706 121.469 109.121 121.469Z" fill="#F8FB82"/>
</svg>
