<svg width="34" height="34" viewBox="0 0 34 34" fill="none" xmlns="http://www.w3.org/2000/svg">
<path d="M15.9374 24.0833H9.91659C7.95686 24.0833 6.28638 23.3927 4.90513 22.0114C3.52388 20.6302 2.83325 18.9597 2.83325 17C2.83325 15.0402 3.52388 13.3698 4.90513 11.9885C6.28638 10.6073 7.95686 9.91663 9.91659 9.91663H15.9374V12.0416H9.91659C8.53928 12.0416 7.36856 12.5229 6.40442 13.4854C5.44031 14.4479 4.95825 15.6166 4.95825 16.9916C4.95825 18.3666 5.44031 19.5382 6.40442 20.5062C7.36856 21.4743 8.53928 21.9583 9.91659 21.9583H15.9374V24.0833ZM11.5103 18.0625V15.9375H22.4895V18.0625H11.5103ZM18.0624 24.0833V21.9583H24.0833C25.4606 21.9583 26.6313 21.477 27.5954 20.5145C28.5595 19.552 29.0416 18.3833 29.0416 17.0083C29.0416 15.6333 28.5595 14.4618 27.5954 13.4937C26.6313 12.5257 25.4606 12.0416 24.0833 12.0416H18.0624V9.91663H24.0833C26.043 9.91663 27.7135 10.6073 29.0947 11.9885C30.476 13.3698 31.1666 15.0402 31.1666 17C31.1666 18.9597 30.476 20.6302 29.0947 22.0114C27.7135 23.3927 26.043 24.0833 24.0833 24.0833H18.0624Z" fill="white"/>
</svg>
