<svg width="154" height="123" viewBox="0 0 154 123" fill="none" xmlns="http://www.w3.org/2000/svg">
<path d="M11.5 122.667C8.43333 122.667 5.75 121.517 3.45 119.217C1.15 116.917 0 114.233 0 111.167V11.5C0 8.43333 1.15 5.75 3.45 3.45C5.75 1.15 8.43333 0 11.5 0H141.833C144.9 0 147.583 1.15 149.883 3.45C152.183 5.75 153.333 8.43333 153.333 11.5V111.167C153.333 114.233 152.183 116.917 149.883 119.217C147.583 121.517 144.9 122.667 141.833 122.667H11.5ZM76.6667 64.7833L11.5 22.0417V111.167H141.833V22.0417L76.6667 64.7833ZM76.6667 53.2833L141.067 11.5H12.4583L76.6667 53.2833ZM11.5 22.0417V11.5V111.167V22.0417Z" fill="white"/>
</svg>
