<svg width="48" height="48" viewBox="0 0 48 48" fill="none" xmlns="http://www.w3.org/2000/svg">
<path d="M40 41.3L41.4 39.9L37.65 36.15V30.55H35.65V36.95L40 41.3ZM9 42C8.175 42 7.46875 41.7062 6.88125 41.1188C6.29375 40.5312 6 39.825 6 39V9C6 8.175 6.29375 7.46875 6.88125 6.88125C7.46875 6.29375 8.175 6 9 6H39C39.825 6 40.5312 6.29375 41.1188 6.88125C41.7062 7.46875 42 8.175 42 9V25.45C41.5333 25.1833 41.0417 24.9667 40.525 24.8C40.0083 24.6333 39.5 24.5 39 24.4V9H9V39H24.45C24.5833 39.5333 24.7337 40.0529 24.9012 40.5586C25.0686 41.0644 25.2682 41.5448 25.5 42H9ZM9 36.65V39V9V24.4V24.2V36.65ZM14 34H24.55C24.6833 33.4667 24.8333 32.95 25 32.45C25.1667 31.95 25.3833 31.4667 25.65 31H14V34ZM14 25.5H31.2C31.6667 25.2667 32.1167 25.075 32.55 24.925C32.9833 24.775 33.4667 24.6333 34 24.5V22.5H14V25.5ZM14 17H34V14H14V17ZM36.625 45.95C34.0417 45.95 31.8333 45.025 30 43.175C28.1667 41.325 27.25 39.1333 27.25 36.6C27.25 33.9855 28.1665 31.7569 29.9995 29.9141C31.8325 28.0714 34.0493 27.15 36.65 27.15C39.2167 27.15 41.425 28.0714 43.275 29.9141C45.125 31.7569 46.05 33.9855 46.05 36.6C46.05 39.1333 45.125 41.325 43.275 43.175C41.425 45.025 39.2083 45.95 36.625 45.95Z" fill="white"/>
</svg>
