<svg width="40" height="40" viewBox="0 0 40 40" fill="none" xmlns="http://www.w3.org/2000/svg">
<path d="M33.1667 34.9583L22.2083 23.9999C21.375 24.7221 20.4033 25.2846 19.2934 25.6874C18.1834 26.0902 17.0023 26.2916 15.75 26.2916C12.7455 26.2916 10.2027 25.2499 8.12163 23.1666C6.04054 21.0833 5 18.5694 5 15.6249C5 12.6805 6.04167 10.1666 8.125 8.08325C10.2083 5.99992 12.7292 4.95825 15.6875 4.95825C18.6458 4.95825 21.1597 5.99992 23.2292 8.08325C25.2986 10.1666 26.3333 12.6826 26.3333 15.6312C26.3333 16.8214 26.1389 17.9721 25.75 19.0833C25.3611 20.1944 24.7778 21.236 24 22.2083L35 33.1249L33.1667 34.9583ZM15.7083 23.7916C17.9653 23.7916 19.8837 22.993 21.4635 21.3958C23.0434 19.7985 23.8333 17.8749 23.8333 15.6249C23.8333 13.3749 23.0434 11.4513 21.4635 9.85409C19.8837 8.25686 17.9653 7.45825 15.7083 7.45825C13.4283 7.45825 11.4902 8.25686 9.89408 9.85409C8.29803 11.4513 7.5 13.3749 7.5 15.6249C7.5 17.8749 8.29803 19.7985 9.89408 21.3958C11.4902 22.993 13.4283 23.7916 15.7083 23.7916Z" fill="#B9B0C8"/>
</svg>
