<svg width="202" height="202" viewBox="0 0 202 202" fill="none" xmlns="http://www.w3.org/2000/svg">
<path d="M101 184.956C81.3611 180.047 65.2292 168.649 52.6042 150.764C39.9792 132.878 33.6667 113.274 33.6667 91.9521V41.8729L101 16.6229L168.333 41.8729V91.9521C168.333 113.274 162.021 132.878 149.396 150.764C136.771 168.649 120.639 180.047 101 184.956ZM101 171.91C117.132 166.58 130.283 156.515 140.453 141.716C150.623 126.916 155.708 110.328 155.708 91.9521V50.7104L101 30.0896L46.2917 50.7104V91.9521C46.2917 110.328 51.3767 126.916 61.5469 141.716C71.717 156.515 84.8681 166.58 101 171.91ZM82.0625 134.667H119.938C121.761 134.667 123.269 134.07 124.461 132.878C125.654 131.686 126.25 130.178 126.25 128.354V98.8958C126.25 97.0722 125.654 95.5642 124.461 94.3719C123.269 93.1795 121.761 92.5833 119.938 92.5833H117.833V84.1667C117.833 79.5375 116.185 75.5747 112.889 72.2781C109.592 68.9816 105.629 67.3333 101 67.3333C96.3708 67.3333 92.408 68.9816 89.1115 72.2781C85.8149 75.5747 84.1667 79.5375 84.1667 84.1667V92.5833H82.0625C80.2389 92.5833 78.7309 93.1795 77.5385 94.3719C76.3462 95.5642 75.75 97.0722 75.75 98.8958V128.354C75.75 130.178 76.3462 131.686 77.5385 132.878C78.7309 134.07 80.2389 134.667 82.0625 134.667ZM90.4792 92.5833V84.1667C90.4792 81.3611 91.5313 79.0115 93.6354 77.1177C95.7396 75.224 98.1945 74.2771 101 74.2771C103.806 74.2771 106.26 75.224 108.365 77.1177C110.469 79.0115 111.521 81.3611 111.521 84.1667V92.5833H90.4792Z" fill="#05B50C"/>
</svg>
